<?xml version="1.0" encoding="utf-8"?>
<!-- Generator: Adobe Illustrator 18.1.0, SVG Export Plug-In . SVG Version: 6.00 Build 0)  -->
<svg version="1.1" id="Layer_1" xmlns="http://www.w3.org/2000/svg" xmlns:xlink="http://www.w3.org/1999/xlink" x="0px" y="0px"
	 viewBox="0 0 520 520" enable-background="new 0 0 520 520" xml:space="preserve">
<path fill="none" stroke="#222222" stroke-width="5" stroke-linecap="round" stroke-linejoin="round" stroke-miterlimit="10" d="
	M256.7,392.5"/>
<path fill="none" stroke="#222222" stroke-width="5" stroke-linecap="round" stroke-linejoin="round" stroke-miterlimit="10" d="
	M248.5,364.6c0-5.4,4.3-9.7,9.7-9.7v6.4"/>
<path fill="none" stroke="#222222" stroke-width="5" stroke-linecap="round" stroke-linejoin="round" stroke-miterlimit="10" d="
	M299.8,374.5h-21.6c0,0-2.5-7.6-17.9-7.6h-5.7c-22.9,0-41.5,18.6-41.5,41.5c0,22.9,18.6,41.5,41.5,41.5"/>
<path fill="none" stroke="#222222" stroke-width="5" stroke-linecap="round" stroke-linejoin="round" stroke-miterlimit="10" d="
	M299.9,375l-4.9,11.3h-13.4c-8.9,8.9-17.7,3.6-17.7,3.6c-4.2,0-7.7,3.4-7.7,7.7s3.4,7.7,7.7,7.7h75c13.7,0,24.8,11.1,24.8,24.8v17.4
	l-1.3,64.3h-6.6l-5.3-35.9"/>
<polyline fill="none" stroke="#222222" stroke-width="5" stroke-linecap="round" stroke-linejoin="round" stroke-miterlimit="10" points="
	266.3,450.4 259.7,509.9 251.9,509.9 251.9,450.4 "/>
<polyline fill="none" stroke="#222222" stroke-width="5" stroke-linecap="round" stroke-linejoin="round" stroke-miterlimit="10" points="
	248.8,449.7 242.2,508.6 234.5,508.6 234.5,446 "/>
<path fill="none" stroke="#222222" stroke-width="5" stroke-linecap="round" stroke-linejoin="round" stroke-miterlimit="10" d="
	M365.6,437.2"/>
<line fill="none" stroke="#222222" stroke-width="5" stroke-linecap="round" stroke-linejoin="round" stroke-miterlimit="10" x1="246" y1="366.9" x2="217.5" y2="366.9"/>
<line fill="none" stroke="#222222" stroke-width="5" stroke-linecap="round" stroke-linejoin="round" stroke-miterlimit="10" x1="207.7" y1="366.9" x2="196.4" y2="366.9"/>
<line fill="none" stroke="#222222" stroke-width="5" stroke-linecap="round" stroke-linejoin="round" stroke-miterlimit="10" x1="217.4" y1="388.9" x2="205" y2="388.9"/>
<line fill="none" stroke="#222222" stroke-width="5" stroke-linecap="round" stroke-linejoin="round" stroke-miterlimit="10" x1="198.5" y1="388.9" x2="187.2" y2="388.9"/>
<line fill="none" stroke="#222222" stroke-width="5" stroke-linecap="round" stroke-linejoin="round" stroke-miterlimit="10" x1="224.2" y1="380.1" x2="179.9" y2="380.1"/>
<line fill="none" stroke="#222222" stroke-width="5" stroke-linecap="round" stroke-linejoin="round" stroke-miterlimit="10" x1="230.9" y1="373.4" x2="219.6" y2="373.4"/>
<line fill="none" stroke="#222222" stroke-width="5" stroke-linecap="round" stroke-linejoin="round" stroke-miterlimit="10" x1="211" y1="373.4" x2="205.1" y2="373.4"/>
<line fill="none" stroke="#222222" stroke-width="5" stroke-linecap="round" stroke-linejoin="round" stroke-miterlimit="10" x1="213.9" y1="395.4" x2="208" y2="395.4"/>
<line fill="none" stroke="#222222" stroke-width="5" stroke-linecap="round" stroke-linejoin="round" stroke-miterlimit="10" x1="211.5" y1="408.4" x2="205.6" y2="408.4"/>
<line fill="none" stroke="#222222" stroke-width="5" stroke-linecap="round" stroke-linejoin="round" stroke-miterlimit="10" x1="212.3" y1="402.4" x2="201" y2="402.4"/>
<line fill="none" stroke="#222222" stroke-width="5" stroke-linecap="round" stroke-linejoin="round" stroke-miterlimit="10" x1="192.4" y1="402.4" x2="186.4" y2="402.4"/>
<path fill="none" stroke="#222222" stroke-width="5" stroke-linecap="round" stroke-linejoin="round" stroke-miterlimit="10" d="
	M266.3,450.4c0,0,33.4-19.9,56.3,3"/>
<path fill="none" stroke="#222222" stroke-width="5" stroke-linecap="round" stroke-linejoin="round" stroke-miterlimit="10" d="
	M349.6,475.5c-16.8-4-28.4-18.2-30-34.4"/>
<path fill="none" stroke="#222222" stroke-width="5" stroke-linecap="round" stroke-linejoin="round" stroke-miterlimit="10" d="
	M339.6,472.3l-1.3,36.7h-6.6l-5.3-30.9"/>
<path fill="none" stroke="#222222" stroke-width="5" stroke-linecap="round" stroke-linejoin="round" stroke-miterlimit="10" d="
	M314.8,407.4"/>
<path fill="none" stroke="#222222" stroke-width="5" stroke-linecap="round" stroke-linejoin="round" stroke-miterlimit="10" d="
	M325.5,477.7c-16.8-4-28.4-18.2-30-34.4"/>
<circle fill="#222222" cx="265.9" cy="374.6" r="2.6"/>
<polyline fill="none" stroke="#222222" stroke-width="5" stroke-linecap="round" stroke-linejoin="round" stroke-miterlimit="10" points="
	260.3,366.9 302.6,331.3 273.6,368.6 "/>
<line fill="none" stroke="#222222" stroke-width="5" stroke-linecap="round" stroke-linejoin="round" stroke-miterlimit="10" x1="293.5" y1="329.8" x2="285.7" y2="329.8"/>
<line fill="none" stroke="#222222" stroke-width="5" stroke-linecap="round" stroke-linejoin="round" stroke-miterlimit="10" x1="321.1" y1="329.8" x2="311.3" y2="329.8"/>
<line fill="none" stroke="#222222" stroke-width="5" stroke-linecap="round" stroke-linejoin="round" stroke-miterlimit="10" x1="303.3" y1="312.8" x2="303.3" y2="320.5"/>
<line fill="none" stroke="#222222" stroke-width="5" stroke-linecap="round" stroke-linejoin="round" stroke-miterlimit="10" x1="313.3" y1="319.8" x2="311.3" y2="321.8"/>
<line fill="none" stroke="#222222" stroke-width="5" stroke-linecap="round" stroke-linejoin="round" stroke-miterlimit="10" x1="294.4" y1="319.8" x2="296.5" y2="321.8"/>
<line fill="none" stroke="#222222" stroke-width="5" stroke-linecap="round" stroke-linejoin="round" stroke-miterlimit="10" x1="311.2" y1="38.2" x2="303.4" y2="38.2"/>
<line fill="none" stroke="#222222" stroke-width="5" stroke-linecap="round" stroke-linejoin="round" stroke-miterlimit="10" x1="338.8" y1="38.2" x2="328.9" y2="38.2"/>
<line fill="none" stroke="#222222" stroke-width="5" stroke-linecap="round" stroke-linejoin="round" stroke-miterlimit="10" x1="321" y1="21.2" x2="321" y2="28.9"/>
<line fill="none" stroke="#222222" stroke-width="5" stroke-linecap="round" stroke-linejoin="round" stroke-miterlimit="10" x1="331" y1="28.1" x2="329" y2="30.2"/>
<line fill="none" stroke="#222222" stroke-width="5" stroke-linecap="round" stroke-linejoin="round" stroke-miterlimit="10" x1="312.1" y1="28.1" x2="314.2" y2="30.2"/>
<line fill="none" stroke="#222222" stroke-width="5" stroke-linecap="round" stroke-linejoin="round" stroke-miterlimit="10" x1="321.3" y1="55.6" x2="321.3" y2="47.9"/>
<line fill="none" stroke="#222222" stroke-width="5" stroke-linecap="round" stroke-linejoin="round" stroke-miterlimit="10" x1="311.2" y1="48.7" x2="313.3" y2="46.6"/>
<line fill="none" stroke="#222222" stroke-width="5" stroke-linecap="round" stroke-linejoin="round" stroke-miterlimit="10" x1="330.1" y1="48.7" x2="328.1" y2="46.6"/>
<line fill="none" stroke="#222222" stroke-width="5" stroke-linecap="round" stroke-linejoin="round" stroke-miterlimit="10" x1="445.3" y1="355.5" x2="437.6" y2="355.5"/>
<line fill="none" stroke="#222222" stroke-width="5" stroke-linecap="round" stroke-linejoin="round" stroke-miterlimit="10" x1="473" y1="355.5" x2="463.1" y2="355.5"/>
<line fill="none" stroke="#222222" stroke-width="5" stroke-linecap="round" stroke-linejoin="round" stroke-miterlimit="10" x1="455.1" y1="338.5" x2="455.1" y2="346.2"/>
<line fill="none" stroke="#222222" stroke-width="5" stroke-linecap="round" stroke-linejoin="round" stroke-miterlimit="10" x1="465.2" y1="345.5" x2="463.2" y2="347.5"/>
<line fill="none" stroke="#222222" stroke-width="5" stroke-linecap="round" stroke-linejoin="round" stroke-miterlimit="10" x1="446.3" y1="345.5" x2="448.3" y2="347.5"/>
<line fill="none" stroke="#222222" stroke-width="5" stroke-linecap="round" stroke-linejoin="round" stroke-miterlimit="10" x1="455.5" y1="373" x2="455.5" y2="365.2"/>
<line fill="none" stroke="#222222" stroke-width="5" stroke-linecap="round" stroke-linejoin="round" stroke-miterlimit="10" x1="445.4" y1="366" x2="447.4" y2="364"/>
<line fill="none" stroke="#222222" stroke-width="5" stroke-linecap="round" stroke-linejoin="round" stroke-miterlimit="10" x1="464.3" y1="366" x2="462.2" y2="364"/>
<line fill="none" stroke="#222222" stroke-width="5" stroke-linecap="round" stroke-linejoin="round" stroke-miterlimit="10" x1="98.6" y1="144.2" x2="90.9" y2="144.2"/>
<line fill="none" stroke="#222222" stroke-width="5" stroke-linecap="round" stroke-linejoin="round" stroke-miterlimit="10" x1="126.3" y1="144.2" x2="116.4" y2="144.2"/>
<line fill="none" stroke="#222222" stroke-width="5" stroke-linecap="round" stroke-linejoin="round" stroke-miterlimit="10" x1="108.4" y1="127.2" x2="108.4" y2="134.9"/>
<line fill="none" stroke="#222222" stroke-width="5" stroke-linecap="round" stroke-linejoin="round" stroke-miterlimit="10" x1="118.5" y1="134.2" x2="116.5" y2="136.2"/>
<line fill="none" stroke="#222222" stroke-width="5" stroke-linecap="round" stroke-linejoin="round" stroke-miterlimit="10" x1="99.6" y1="134.2" x2="101.6" y2="136.2"/>
<line fill="none" stroke="#222222" stroke-width="5" stroke-linecap="round" stroke-linejoin="round" stroke-miterlimit="10" x1="108.8" y1="161.7" x2="108.8" y2="153.9"/>
<line fill="none" stroke="#222222" stroke-width="5" stroke-linecap="round" stroke-linejoin="round" stroke-miterlimit="10" x1="98.7" y1="154.7" x2="100.7" y2="152.7"/>
<line fill="none" stroke="#222222" stroke-width="5" stroke-linecap="round" stroke-linejoin="round" stroke-miterlimit="10" x1="117.6" y1="154.7" x2="115.6" y2="152.7"/>
<line fill="none" stroke="#222222" stroke-width="5" stroke-linecap="round" stroke-linejoin="round" stroke-miterlimit="10" x1="36.3" y1="243.2" x2="28.5" y2="243.2"/>
<line fill="none" stroke="#222222" stroke-width="5" stroke-linecap="round" stroke-linejoin="round" stroke-miterlimit="10" x1="63.9" y1="243.2" x2="54" y2="243.2"/>
<line fill="none" stroke="#222222" stroke-width="5" stroke-linecap="round" stroke-linejoin="round" stroke-miterlimit="10" x1="46" y1="226.2" x2="46" y2="233.9"/>
<line fill="none" stroke="#222222" stroke-width="5" stroke-linecap="round" stroke-linejoin="round" stroke-miterlimit="10" x1="56.1" y1="233.2" x2="54.1" y2="235.2"/>
<line fill="none" stroke="#222222" stroke-width="5" stroke-linecap="round" stroke-linejoin="round" stroke-miterlimit="10" x1="37.2" y1="233.2" x2="39.3" y2="235.2"/>
<line fill="none" stroke="#222222" stroke-width="5" stroke-linecap="round" stroke-linejoin="round" stroke-miterlimit="10" x1="36.3" y1="253.7" x2="38.3" y2="251.7"/>
<line fill="none" stroke="#222222" stroke-width="5" stroke-linecap="round" stroke-linejoin="round" stroke-miterlimit="10" x1="55.2" y1="253.7" x2="53.2" y2="251.7"/>
<line fill="none" stroke="#222222" stroke-width="5" stroke-linecap="round" stroke-linejoin="round" stroke-miterlimit="10" x1="234.5" y1="498.2" x2="243.4" y2="498.2"/>
<line fill="none" stroke="#222222" stroke-width="5" stroke-linecap="round" stroke-linejoin="round" stroke-miterlimit="10" x1="252.2" y1="500.6" x2="261.1" y2="500.6"/>
<line fill="none" stroke="#222222" stroke-width="5" stroke-linecap="round" stroke-linejoin="round" stroke-miterlimit="10" x1="331.2" y1="500.4" x2="338" y2="500.4"/>
<line fill="none" stroke="#222222" stroke-width="5" stroke-linecap="round" stroke-linejoin="round" stroke-miterlimit="10" x1="355" y1="501.6" x2="361.7" y2="501.6"/>
<path fill="none" stroke="#222222" stroke-width="5" stroke-linecap="round" stroke-linejoin="round" stroke-miterlimit="10" d="
	M354,364.6c11.1,0,20.1,9,20.1,20.1s-9,20.1-20.1,20.1h-17.5"/>
<path fill="none" stroke="#222222" stroke-width="5" stroke-linecap="round" stroke-linejoin="round" stroke-miterlimit="10" d="
	M353.7,377.5c7.5,0,13.6,6.1,13.6,13.6c0,7.5-6.1,13.6-13.6,13.6h-11.8"/>
<path fill="none" stroke="#222222" stroke-width="5" stroke-linecap="round" stroke-linejoin="round" stroke-miterlimit="10" d="
	M380.6,391.1c0,7.5-6.1,13.6-13.6,13.6h-11.8"/>
<rect x="425.1" y="213.5" transform="matrix(0.7071 0.7071 -0.7071 0.7071 299.7577 -232.5446)" fill="none" stroke="#222222" stroke-width="5" stroke-linecap="round" stroke-linejoin="round" stroke-miterlimit="10" width="11" height="64.2"/>
<path fill="none" stroke="#222222" stroke-width="5" stroke-linecap="round" stroke-linejoin="round" stroke-miterlimit="10" d="
	M476.3,213.5L458.6,228l-11-11l14.5-17.7l4.9,3.3c1.7-1.7,4.5-1.7,6.3,0c1.7,1.7,1.7,4.5,0,6.3L476.3,213.5z"/>
<path fill="none" stroke="#222222" stroke-width="5" stroke-linecap="round" stroke-linejoin="round" stroke-miterlimit="10" d="
	M325,286.1c-3.4,1.8-5.7,5.4-5.7,9.6c0,6,4.9,10.9,10.9,10.9l3.7-0.6l27-6.9l1-0.3"/>
<path fill="none" stroke="#222222" stroke-width="5" stroke-linecap="round" stroke-linejoin="round" stroke-miterlimit="10" d="
	M360.1,299.4c3.5-1.7,7.8-1,10.7,1.9"/>
<polyline fill="none" stroke="#222222" stroke-width="5" stroke-linecap="round" stroke-linejoin="round" stroke-miterlimit="10" points="
	325.7,285.8 326.1,285.7 401.1,257.4 "/>
<path fill="none" stroke="#222222" stroke-width="5" stroke-linecap="round" stroke-linejoin="round" stroke-miterlimit="10" d="
	M359.3,336.6c-0.5,1-0.9,2.1-1.1,3.2c-1.1,5.9,2.9,11.5,8.8,12.6c4.1,0.7,8.1-0.9,10.5-4"/>
<path fill="none" stroke="#222222" stroke-width="5" stroke-linecap="round" stroke-linejoin="round" stroke-miterlimit="10" d="
	M371.2,312.4c2.2-3.2,2.4-7.5,0-10.9"/>
<polyline fill="none" stroke="#222222" stroke-width="5" stroke-linecap="round" stroke-linejoin="round" stroke-miterlimit="10" points="
	359.5,336.4 360.1,335.2 371.7,311.7 372.2,310.8 "/>
<polyline fill="none" stroke="#222222" stroke-width="5" stroke-linecap="round" stroke-linejoin="round" stroke-miterlimit="10" points="
	420.3,276.7 378.2,347.4 378,347.7 377.8,347.9 "/>
<line fill="none" stroke="#222222" stroke-width="5" stroke-linecap="round" stroke-linejoin="round" stroke-miterlimit="10" x1="401.6" y1="257.3" x2="406.4" y2="262"/>
<line fill="none" stroke="#222222" stroke-width="5" stroke-linecap="round" stroke-linejoin="round" stroke-miterlimit="10" x1="420.3" y1="276" x2="414.2" y2="269.9"/>
<line fill="none" stroke="#222222" stroke-width="5" stroke-linecap="round" stroke-linejoin="round" stroke-miterlimit="10" x1="384.8" y1="301.3" x2="372.2" y2="288.6"/>
<polyline fill="none" stroke="#222222" stroke-width="5" stroke-linecap="round" stroke-linejoin="round" stroke-miterlimit="10" points="
	404,259.7 382.8,276 378.8,346.4 "/>
<line fill="none" stroke="#222222" stroke-width="5" stroke-linecap="round" stroke-linejoin="round" stroke-miterlimit="10" x1="407.8" y1="261.6" x2="411.7" y2="265.6"/>
<line fill="none" stroke="#222222" stroke-width="5" stroke-linecap="round" stroke-linejoin="round" stroke-miterlimit="10" x1="415.1" y1="254.4" x2="419" y2="258.3"/>
<line fill="none" stroke="#222222" stroke-width="5" stroke-linecap="round" stroke-linejoin="round" stroke-miterlimit="10" x1="422.3" y1="247.1" x2="426.3" y2="251"/>
<line fill="none" stroke="#222222" stroke-width="5" stroke-linecap="round" stroke-linejoin="round" stroke-miterlimit="10" x1="429.6" y1="239.8" x2="433.5" y2="243.8"/>
<line fill="none" stroke="#222222" stroke-width="5" stroke-linecap="round" stroke-linejoin="round" stroke-miterlimit="10" x1="436.9" y1="232.6" x2="440.8" y2="236.5"/>
<line fill="none" stroke="#222222" stroke-width="5" stroke-linecap="round" stroke-linejoin="round" stroke-miterlimit="10" x1="444.1" y1="225.3" x2="448" y2="229.2"/>
<circle fill="#222222" cx="389.8" cy="307.1" r="3.6"/>
<circle fill="#222222" cx="397.9" cy="299" r="3.6"/>
<line fill="none" stroke="#222222" stroke-width="5" stroke-linecap="round" stroke-linejoin="round" stroke-miterlimit="10" x1="382.2" y1="297.8" x2="455.3" y2="224.7"/>
<line fill="none" stroke="#222222" stroke-width="5" stroke-linecap="round" stroke-linejoin="round" stroke-miterlimit="10" x1="299.8" y1="229.2" x2="325.7" y2="229.2"/>
<line fill="none" stroke="#222222" stroke-width="5" stroke-linecap="round" stroke-linejoin="round" stroke-miterlimit="10" x1="8.3" y1="56.8" x2="24.3" y2="56.8"/>
<line fill="none" stroke="#222222" stroke-width="5" stroke-linecap="round" stroke-linejoin="round" stroke-miterlimit="10" x1="128.5" y1="451" x2="193.6" y2="451"/>
<line fill="none" stroke="#222222" stroke-width="5" stroke-linecap="round" stroke-linejoin="round" stroke-miterlimit="10" x1="125.4" y1="320.8" x2="151.3" y2="320.8"/>
<line fill="none" stroke="#222222" stroke-width="5" stroke-linecap="round" stroke-linejoin="round" stroke-miterlimit="10" x1="455.3" y1="428.6" x2="481.2" y2="428.6"/>
<line fill="none" stroke="#222222" stroke-width="5" stroke-linecap="round" stroke-linejoin="round" stroke-miterlimit="10" x1="180.6" y1="485.3" x2="206.5" y2="485.3"/>
<line fill="none" stroke="#222222" stroke-width="5" stroke-linecap="round" stroke-linejoin="round" stroke-miterlimit="10" x1="253.3" y1="68.4" x2="279.3" y2="68.4"/>
<line fill="none" stroke="#222222" stroke-width="5" stroke-linecap="round" stroke-linejoin="round" stroke-miterlimit="10" x1="125.2" y1="397.9" x2="140.3" y2="397.9"/>
<circle fill="none" stroke="#222222" stroke-width="5" stroke-linecap="round" stroke-linejoin="round" stroke-miterlimit="10" cx="490" cy="201.3" r="4.4"/>
<path fill="none" stroke="#222222" stroke-width="5" stroke-linecap="round" stroke-linejoin="round" stroke-miterlimit="10" d="
	M494.4,201.3v-29.1c0,0,10.4,20.8,15.6,15.6"/>
<circle fill="none" stroke="#222222" stroke-width="5" stroke-linecap="round" stroke-linejoin="round" stroke-miterlimit="10" cx="381.2" cy="234.9" r="4.4"/>
<path fill="none" stroke="#222222" stroke-width="5" stroke-linecap="round" stroke-linejoin="round" stroke-miterlimit="10" d="
	M385.6,234.9v-29.1c0,0,10.4,20.8,15.6,15.6"/>
<circle fill="none" stroke="#222222" stroke-width="5" stroke-linecap="round" stroke-linejoin="round" stroke-miterlimit="10" cx="476.5" cy="305.9" r="4.4"/>
<circle fill="none" stroke="#222222" stroke-width="5" stroke-linecap="round" stroke-linejoin="round" stroke-miterlimit="10" cx="336.5" cy="92.3" r="4.4"/>
<circle fill="none" stroke="#222222" stroke-width="5" stroke-linecap="round" stroke-linejoin="round" stroke-miterlimit="10" cx="494.4" cy="381.5" r="4.4"/>
<circle fill="none" stroke="#222222" stroke-width="5" stroke-linecap="round" stroke-linejoin="round" stroke-miterlimit="10" cx="440.8" cy="290.5" r="4.4"/>
<circle fill="none" stroke="#222222" stroke-width="5" stroke-linecap="round" stroke-linejoin="round" stroke-miterlimit="10" cx="81.7" cy="294.9" r="4.4"/>
<circle fill="none" stroke="#222222" stroke-width="5" stroke-linecap="round" stroke-linejoin="round" stroke-miterlimit="10" cx="125.4" cy="196.9" r="4.4"/>
<circle fill="none" stroke="#222222" stroke-width="5" stroke-linecap="round" stroke-linejoin="round" stroke-miterlimit="10" cx="224.2" cy="323.6" r="4.4"/>
<circle fill="none" stroke="#222222" stroke-width="5" stroke-linecap="round" stroke-linejoin="round" stroke-miterlimit="10" cx="66.5" cy="498.2" r="4.4"/>
<circle fill="none" stroke="#222222" stroke-width="5" stroke-linecap="round" stroke-linejoin="round" stroke-miterlimit="10" cx="24.3" cy="201.3" r="4.4"/>
<circle fill="none" stroke="#222222" stroke-width="5" stroke-linecap="round" stroke-linejoin="round" stroke-miterlimit="10" cx="490" cy="28.1" r="4.4"/>
<circle fill="none" stroke="#222222" stroke-width="5" stroke-linecap="round" stroke-linejoin="round" stroke-miterlimit="10" cx="104.2" cy="80.7" r="4.4"/>
<circle fill="none" stroke="#222222" stroke-width="5" stroke-linecap="round" stroke-linejoin="round" stroke-miterlimit="10" cx="146.9" cy="475.5" r="4.4"/>
<circle fill="none" stroke="#222222" stroke-width="5" stroke-linecap="round" stroke-linejoin="round" stroke-miterlimit="10" cx="222.3" cy="24.2" r="4.4"/>
<path fill="none" stroke="#222222" stroke-width="5" stroke-linecap="round" stroke-linejoin="round" stroke-miterlimit="10" d="
	M480.9,305.9v-29.1c0,0,10.4,20.8,15.6,15.6"/>
<line fill="none" stroke="#222222" stroke-width="5" stroke-linecap="round" stroke-linejoin="round" stroke-miterlimit="10" x1="246.5" y1="273.9" x2="246.5" y2="245.4"/>
<line fill="none" stroke="#222222" stroke-width="5" stroke-linecap="round" stroke-linejoin="round" stroke-miterlimit="10" x1="240.3" y1="273.9" x2="240.3" y2="245.4"/>
<rect x="246.5" y="253.3" fill="none" stroke="#222222" stroke-width="5" stroke-linecap="round" stroke-linejoin="round" stroke-miterlimit="10" width="54.8" height="12.7"/>
<line fill="none" stroke="#222222" stroke-width="5" stroke-linecap="round" stroke-linejoin="round" stroke-miterlimit="10" x1="260.1" y1="266" x2="247.4" y2="253.3"/>
<line fill="none" stroke="#222222" stroke-width="5" stroke-linecap="round" stroke-linejoin="round" stroke-miterlimit="10" x1="271.1" y1="266" x2="258.4" y2="253.3"/>
<line fill="none" stroke="#222222" stroke-width="5" stroke-linecap="round" stroke-linejoin="round" stroke-miterlimit="10" x1="282.4" y1="266" x2="269.7" y2="253.3"/>
<line fill="none" stroke="#222222" stroke-width="5" stroke-linecap="round" stroke-linejoin="round" stroke-miterlimit="10" x1="292.2" y1="266" x2="279.5" y2="253.3"/>
<line fill="none" stroke="#222222" stroke-width="5" stroke-linecap="round" stroke-linejoin="round" stroke-miterlimit="10" x1="301.4" y1="266" x2="288.7" y2="253.3"/>
<polyline fill="none" stroke="#222222" stroke-width="5" stroke-linecap="round" stroke-linejoin="round" stroke-miterlimit="10" points="
	239.9,266 112.1,266 130.2,255 240.3,255 "/>
<circle fill="none" stroke="#222222" stroke-width="5" stroke-linecap="round" stroke-linejoin="round" stroke-miterlimit="10" cx="307.7" cy="259.7" r="3.8"/>
<line fill="none" stroke="#222222" stroke-width="5" stroke-linecap="round" stroke-linejoin="round" stroke-miterlimit="10" x1="130.2" y1="255" x2="135.3" y2="260.1"/>
<circle fill="none" stroke="#222222" stroke-width="5" stroke-linecap="round" stroke-linejoin="round" stroke-miterlimit="10" cx="206.6" cy="145.5" r="45.6"/>
<line fill="none" stroke="#222222" stroke-width="5" stroke-linecap="round" stroke-linejoin="round" stroke-miterlimit="10" x1="225.3" y1="172.2" x2="240.3" y2="172.2"/>
<line fill="none" stroke="#222222" stroke-width="5" stroke-linecap="round" stroke-linejoin="round" stroke-miterlimit="10" x1="207.2" y1="172.2" x2="215.8" y2="172.2"/>
<line fill="none" stroke="#222222" stroke-width="5" stroke-linecap="round" stroke-linejoin="round" stroke-miterlimit="10" x1="164.9" y1="159.1" x2="179.9" y2="159.1"/>
<line fill="none" stroke="#222222" stroke-width="5" stroke-linecap="round" stroke-linejoin="round" stroke-miterlimit="10" x1="222.3" y1="114.2" x2="237.4" y2="114.2"/>
<line fill="none" stroke="#222222" stroke-width="5" stroke-linecap="round" stroke-linejoin="round" stroke-miterlimit="10" x1="161" y1="145.5" x2="206.6" y2="145.5"/>
<path fill="none" stroke="#222222" stroke-width="5" stroke-linecap="round" stroke-linejoin="round" stroke-miterlimit="10" d="
	M44.2,181.3h-3.9c-13.7,0-25-11.2-25-25v-29.8c0-13.7,11.2-25,25-25h3.9c13.7,0,25,11.2,25,25v29.8C69.2,170.1,58,181.3,44.2,181.3z
	"/>
<circle fill="none" stroke="#222222" stroke-width="5" stroke-linecap="round" stroke-linejoin="round" stroke-miterlimit="10" cx="42.3" cy="123.2" r="4"/>
<path fill="none" stroke="#222222" stroke-width="5" stroke-linecap="round" stroke-linejoin="round" stroke-miterlimit="10" d="
	M91.6,22.9c0,6.9-5.6,12.6-12.6,12.6s-12.6-5.6-12.6-12.6"/>
<path fill="none" stroke="#222222" stroke-width="5" stroke-linecap="round" stroke-linejoin="round" stroke-miterlimit="10" d="
	M141.9,22.9c0,6.9-5.6,12.6-12.6,12.6c-6.9,0-12.6-5.6-12.6-12.6"/>
<path fill="none" stroke="#222222" stroke-width="5" stroke-linecap="round" stroke-linejoin="round" stroke-miterlimit="10" d="
	M91.6,22.9c0-6.9,5.6-12.6,12.6-12.6c6.9,0,12.6,5.6,12.6,12.6"/>
<path fill="none" stroke="#222222" stroke-width="5" stroke-linecap="round" stroke-linejoin="round" stroke-miterlimit="10" d="
	M424.4,30.9c3.2,0,5.7,2.6,5.7,5.7s-2.6,5.7-5.7,5.7"/>
<path fill="none" stroke="#222222" stroke-width="5" stroke-linecap="round" stroke-linejoin="round" stroke-miterlimit="10" d="
	M424.4,8c3.2,0,5.7,2.6,5.7,5.7s-2.6,5.7-5.7,5.7"/>
<path fill="none" stroke="#222222" stroke-width="5" stroke-linecap="round" stroke-linejoin="round" stroke-miterlimit="10" d="
	M424.4,30.9c-3.2,0-5.7-2.6-5.7-5.7s2.6-5.7,5.7-5.7"/>
<path fill="none" stroke="#222222" stroke-width="5" stroke-linecap="round" stroke-linejoin="round" stroke-miterlimit="10" d="
	M406.7,8c3.2,0,5.7,2.6,5.7,5.7s-2.6,5.7-5.7,5.7"/>
<path fill="none" stroke="#222222" stroke-width="5" stroke-linecap="round" stroke-linejoin="round" stroke-miterlimit="10" d="
	M406.7,30.9c-3.2,0-5.7-2.6-5.7-5.7s2.6-5.7,5.7-5.7"/>
<path fill="none" stroke="#222222" stroke-width="5" stroke-linecap="round" stroke-linejoin="round" stroke-miterlimit="10" d="
	M141.9,22.9c0-6.9,5.6-12.6,12.6-12.6c6.9,0,12.6,5.6,12.6,12.6V66"/>
<path fill="none" stroke="#222222" stroke-width="5" stroke-linecap="round" stroke-linejoin="round" stroke-miterlimit="10" d="
	M66.5,22.9c0-6.9-5.6-12.6-12.6-12.6s-12.6,5.6-12.6,12.6v77.6"/>
<rect x="161" y="66" fill="none" stroke="#222222" stroke-width="5" stroke-linecap="round" stroke-linejoin="round" stroke-miterlimit="10" width="11.4" height="14.7"/>
<path fill="#222222" stroke="#222222" stroke-width="5" stroke-linecap="round" stroke-linejoin="round" stroke-miterlimit="10" d="
	M322.9,171.5c0,8.4-6.8,15.2-15.2,15.2s-15.2-6.8-15.2-15.2H322.9z"/>
<circle fill="#222222" cx="297" cy="155.9" r="4.6"/>
<circle fill="#222222" cx="318.4" cy="155.9" r="4.6"/>
<polygon fill="none" stroke="#222222" stroke-width="5" stroke-linecap="round" stroke-linejoin="round" stroke-miterlimit="10" points="
	443.1,173.2 386.6,173.2 379.6,74.5 450.1,74.5 "/>
<rect x="372.8" y="64.1" fill="none" stroke="#222222" stroke-width="5" stroke-linecap="round" stroke-linejoin="round" stroke-miterlimit="10" width="84" height="10.4"/>
<rect x="382.3" y="50.6" fill="none" stroke="#222222" stroke-width="5" stroke-linecap="round" stroke-linejoin="round" stroke-miterlimit="10" width="65.1" height="13.5"/>
<circle fill="none" stroke="#222222" stroke-width="5" stroke-linecap="round" stroke-linejoin="round" stroke-miterlimit="10" cx="414.9" cy="126.1" r="16.3"/>
<polygon fill="none" stroke="#222222" stroke-width="5" stroke-linecap="round" stroke-linejoin="round" stroke-miterlimit="10" points="
	202.4,289.6 198.9,302.6 195.4,315.6 185.9,306.1 176.4,296.6 189.4,293.1 "/>
<polygon fill="none" stroke="#222222" stroke-width="5" stroke-linecap="round" stroke-linejoin="round" stroke-miterlimit="10" points="
	493.9,472.3 490.4,485.3 487,498.3 477.4,488.8 467.9,479.2 480.9,475.7 "/>
<polygon fill="none" stroke="#222222" stroke-width="5" stroke-linecap="round" stroke-linejoin="round" stroke-miterlimit="10" points="
	494.2,92.3 490.7,105.3 487.3,118.3 477.7,108.8 468.2,99.2 481.2,95.7 "/>
<polygon fill="none" stroke="#222222" stroke-width="5" stroke-linecap="round" stroke-linejoin="round" stroke-miterlimit="10" points="
	107.8,447.5 104.3,460.5 100.8,473.5 91.3,464 81.7,454.4 94.7,450.9 "/>
<polygon fill="none" stroke="#222222" stroke-width="5" stroke-linecap="round" stroke-linejoin="round" stroke-miterlimit="10" points="
	280.3,101.3 293.3,104.8 306.3,108.2 296.8,117.8 287.2,127.3 283.8,114.3 "/>
<g>
	<path fill="none" stroke="#222222" stroke-width="5" stroke-linecap="round" stroke-linejoin="round" stroke-miterlimit="10" d="
		M28,366.3"/>
</g>
<g>
	<path fill="none" stroke="#222222" stroke-width="5" stroke-linecap="round" stroke-linejoin="round" stroke-miterlimit="10" d="
		M30.9,314.5c0,0-5.6,22.1-2.9,54.1c1,12.3,6.3,42.4,17,46.8"/>
</g>
<g>
	<path fill="none" stroke="#222222" stroke-width="5" stroke-linecap="round" stroke-linejoin="round" stroke-miterlimit="10" d="
		M59.1,314.5c0,0,5.6,22.1,2.9,54.1c-1,12.3-6.3,42.4-17,46.8"/>
</g>
<g>
	<path fill="none" stroke="#222222" stroke-width="5" stroke-linecap="round" stroke-linejoin="round" stroke-miterlimit="10" d="
		M28,371.5"/>
</g>
<line fill="none" stroke="#222222" stroke-width="5" stroke-linecap="round" stroke-linejoin="round" stroke-miterlimit="10" x1="27.9" y1="403" x2="62" y2="403"/>
<line fill="none" stroke="#222222" stroke-width="5" stroke-linecap="round" stroke-linejoin="round" stroke-miterlimit="10" x1="27.9" y1="415.7" x2="62" y2="415.7"/>
<circle fill="#222222" cx="45" cy="343.6" r="5.9"/>
<circle fill="#222222" cx="45" cy="243.7" r="3.2"/>
<polygon fill="none" stroke="#222222" stroke-width="5" stroke-linecap="round" stroke-linejoin="round" stroke-miterlimit="10" points="
	45,278.3 59.1,314.5 45,314.5 30.9,314.5 "/>
<line fill="none" stroke="#222222" stroke-width="5" stroke-linecap="round" stroke-linejoin="round" stroke-miterlimit="10" x1="27.3" y1="357" x2="36.1" y2="357"/>
<line fill="none" stroke="#222222" stroke-width="5" stroke-linecap="round" stroke-linejoin="round" stroke-miterlimit="10" x1="49.5" y1="377.3" x2="58.3" y2="377.3"/>
<rect x="32.5" y="415.7" fill="none" stroke="#222222" stroke-width="5" stroke-linecap="round" stroke-linejoin="round" stroke-miterlimit="10" width="25" height="16.4"/>
<line fill="none" stroke="#222222" stroke-width="5" stroke-linecap="round" stroke-linejoin="round" stroke-miterlimit="10" x1="36.1" y1="432.7" x2="36.1" y2="460.1"/>
<line fill="none" stroke="#222222" stroke-width="5" stroke-linecap="round" stroke-linejoin="round" stroke-miterlimit="10" x1="36.1" y1="470.2" x2="36.1" y2="474.1"/>
<line fill="none" stroke="#222222" stroke-width="5" stroke-linecap="round" stroke-linejoin="round" stroke-miterlimit="10" x1="54.5" y1="434.3" x2="54.5" y2="446.1"/>
<line fill="none" stroke="#222222" stroke-width="5" stroke-linecap="round" stroke-linejoin="round" stroke-miterlimit="10" x1="54.5" y1="456.2" x2="54.5" y2="471.9"/>
<line fill="none" stroke="#222222" stroke-width="5" stroke-linecap="round" stroke-linejoin="round" stroke-miterlimit="10" x1="45" y1="433" x2="45" y2="440.9"/>
<line fill="none" stroke="#222222" stroke-width="5" stroke-linecap="round" stroke-linejoin="round" stroke-miterlimit="10" x1="45" y1="451" x2="45" y2="454.9"/>
<line fill="none" stroke="#222222" stroke-width="5" stroke-linecap="round" stroke-linejoin="round" stroke-miterlimit="10" x1="400.5" y1="408.6" x2="400.5" y2="457.4"/>
<line fill="none" stroke="#222222" stroke-width="5" stroke-linecap="round" stroke-linejoin="round" stroke-miterlimit="10" x1="400.5" y1="475.4" x2="400.5" y2="482.4"/>
<line fill="none" stroke="#222222" stroke-width="5" stroke-linecap="round" stroke-linejoin="round" stroke-miterlimit="10" x1="433.3" y1="411.5" x2="433.3" y2="432.4"/>
<line fill="none" stroke="#222222" stroke-width="5" stroke-linecap="round" stroke-linejoin="round" stroke-miterlimit="10" x1="433.3" y1="450.5" x2="433.3" y2="498.2"/>
<line fill="none" stroke="#222222" stroke-width="5" stroke-linecap="round" stroke-linejoin="round" stroke-miterlimit="10" x1="416.3" y1="339.9" x2="416.3" y2="423.1"/>
<line fill="none" stroke="#222222" stroke-width="5" stroke-linecap="round" stroke-linejoin="round" stroke-miterlimit="10" x1="416.3" y1="441.2" x2="416.3" y2="448.1"/>
<polyline fill="none" stroke="#222222" stroke-width="5" stroke-linecap="round" stroke-linejoin="round" stroke-miterlimit="10" points="
	27.3,363.9 10.4,391.9 31.7,391.9 "/>
<polyline fill="none" stroke="#222222" stroke-width="5" stroke-linecap="round" stroke-linejoin="round" stroke-miterlimit="10" points="
	64.8,363.9 81.7,391.9 60.4,391.9 "/>
<line fill="none" stroke="#222222" stroke-width="5" stroke-linecap="round" stroke-linejoin="round" stroke-miterlimit="10" x1="45" y1="280.6" x2="45" y2="247.8"/>
<line fill="none" stroke="#222222" stroke-width="5" stroke-linecap="round" stroke-linejoin="round" stroke-miterlimit="10" x1="45" y1="303.4" x2="53.2" y2="303.4"/>
<line fill="none" stroke="#222222" stroke-width="5" stroke-linecap="round" stroke-linejoin="round" stroke-miterlimit="10" x1="45" y1="423.9" x2="56.1" y2="423.9"/>
</svg>
