<?xml version="1.0" encoding="utf-8"?>
<!-- Generator: Adobe Illustrator 19.2.0, SVG Export Plug-In . SVG Version: 6.00 Build 0)  -->
<svg version="1.1" id="Layer_1" xmlns="http://www.w3.org/2000/svg" xmlns:xlink="http://www.w3.org/1999/xlink" x="0px" y="0px"
	 viewBox="0 0 520 520" style="enable-background:new 0 0 520 520;" xml:space="preserve">
<style type="text/css">
	.st0{opacity:0.15;}
	.st1{fill:#222222;}
</style>
<g class="st0">
	<path class="st1" d="M196.4,369.4h11.3c1.4,0,2.5-1.1,2.5-2.5s-1.1-2.5-2.5-2.5h-11.3c-1.4,0-2.5,1.1-2.5,2.5
		S195,369.4,196.4,369.4z"/>
	<path class="st1" d="M198.5,391.4c1.4,0,2.5-1.1,2.5-2.5s-1.1-2.5-2.5-2.5h-11.3c-1.4,0-2.5,1.1-2.5,2.5s1.1,2.5,2.5,2.5H198.5z"/>
	<path class="st1" d="M205.1,375.9h5.9c1.4,0,2.5-1.1,2.5-2.5s-1.1-2.5-2.5-2.5h-5.9c-1.4,0-2.5,1.1-2.5,2.5
		S203.7,375.9,205.1,375.9z"/>
	<path class="st1" d="M183.9,402.4c0,1.4,1.1,2.5,2.5,2.5h6c1.4,0,2.5-1.1,2.5-2.5s-1.1-2.5-2.5-2.5h-6
		C185,399.9,183.9,401,183.9,402.4z"/>
	<circle class="st1" cx="265.9" cy="374.6" r="2.6"/>
	<path class="st1" d="M285.7,327.3c-1.4,0-2.5,1.1-2.5,2.5s1.1,2.5,2.5,2.5h7.8c1.4,0,2.5-1.1,2.5-2.5s-1.1-2.5-2.5-2.5H285.7z"/>
	<path class="st1" d="M308.8,329.8c0,1.4,1.1,2.5,2.5,2.5h9.8c1.4,0,2.5-1.1,2.5-2.5s-1.1-2.5-2.5-2.5h-9.8
		C309.9,327.3,308.8,328.4,308.8,329.8z"/>
	<path class="st1" d="M300.8,312.8v7.7c0,1.4,1.1,2.5,2.5,2.5s2.5-1.1,2.5-2.5v-7.7c0-1.4-1.1-2.5-2.5-2.5S300.8,311.4,300.8,312.8z
		"/>
	<path class="st1" d="M311.5,318l-2,2c-1,1-1,2.6,0,3.5c0.5,0.5,1.1,0.7,1.8,0.7s1.3-0.2,1.8-0.7l2-2c1-1,1-2.6,0-3.5
		S312.5,317.1,311.5,318z"/>
	<path class="st1" d="M298.3,323.5c1-1,0.9-2.6-0.1-3.5l-2.1-2c-1-1-2.6-0.9-3.5,0.1c-1,1-0.9,2.6,0.1,3.5l2.1,2
		c0.5,0.5,1.1,0.7,1.7,0.7C297.2,324.3,297.8,324,298.3,323.5z"/>
	<path class="st1" d="M303.4,40.7h7.8c1.4,0,2.5-1.1,2.5-2.5s-1.1-2.5-2.5-2.5h-7.8c-1.4,0-2.5,1.1-2.5,2.5S302,40.7,303.4,40.7z"/>
	<path class="st1" d="M327.4,38.2c0,1.4,1.1,2.5,2.5,2.5h9.9c1.4,0,2.5-1.1,2.5-2.5s-1.1-2.5-2.5-2.5h-9.9
		C328.5,35.7,327.4,36.8,327.4,38.2z"/>
	<path class="st1" d="M321,31.4c1.4,0,2.5-1.1,2.5-2.5v-7.7c0-1.4-1.1-2.5-2.5-2.5s-2.5,1.1-2.5,2.5v7.7
		C318.5,30.3,319.6,31.4,321,31.4z"/>
	<path class="st1" d="M329,32.7c0.7,0,1.3-0.3,1.8-0.8l2-2.1c1-1,0.9-2.6-0.1-3.5c-1-1-2.6-0.9-3.5,0.1l-2,2.1c-1,1-0.9,2.6,0.1,3.5
		C327.8,32.5,328.4,32.7,329,32.7z"/>
	<path class="st1" d="M312.4,32c0.5,0.5,1.1,0.7,1.8,0.7s1.3-0.2,1.8-0.7c1-1,1-2.6,0-3.5l-2.1-2.1c-1-1-2.6-1-3.5,0
		c-1,1-1,2.6,0,3.5L312.4,32z"/>
	<path class="st1" d="M321.3,45.4c-1.4,0-2.5,1.1-2.5,2.5v7.7c0,1.4,1.1,2.5,2.5,2.5s2.5-1.1,2.5-2.5v-7.7
		C323.8,46.5,322.7,45.4,321.3,45.4z"/>
	<path class="st1" d="M315.1,48.4c1-1,1-2.6,0-3.5c-1-1-2.6-1-3.5,0l-2.1,2.1c-1,1-1,2.6,0,3.5c0.5,0.5,1.1,0.7,1.8,0.7
		s1.3-0.2,1.8-0.7L315.1,48.4z"/>
	<path class="st1" d="M328.3,50.4c0.5,0.5,1.2,0.8,1.8,0.8c0.6,0,1.2-0.2,1.7-0.7c1-1,1-2.5,0.1-3.5l-2-2.1c-1-1-2.5-1-3.5-0.1
		c-1,1-1,2.5-0.1,3.5L328.3,50.4z"/>
	<path class="st1" d="M447.8,355.5c0-1.4-1.1-2.5-2.5-2.5h-7.7c-1.4,0-2.5,1.1-2.5,2.5s1.1,2.5,2.5,2.5h7.7
		C446.7,358,447.8,356.9,447.8,355.5z"/>
	<path class="st1" d="M476.5,355.5c0-1.4-1.1-2.5-2.5-2.5h-9.9c-1.4,0-2.5,1.1-2.5,2.5s1.1,2.5,2.5,2.5h9.9
		C475.4,358,476.5,356.9,476.5,355.5z"/>
	<path class="st1" d="M455.1,348.7c1.4,0,2.5-1.1,2.5-2.5v-7.7c0-1.4-1.1-2.5-2.5-2.5s-2.5,1.1-2.5,2.5v7.7
		C452.6,347.6,453.7,348.7,455.1,348.7z"/>
	<path class="st1" d="M465,349.3l2-2c1-1,1-2.6,0-3.5s-2.6-1-3.5,0l-2,2c-1,1-1,2.6,0,3.5c0.5,0.5,1.1,0.7,1.8,0.7
		S464.5,349.8,465,349.3z"/>
	<path class="st1" d="M448.1,343.7c-1-1-2.6-1-3.5,0s-1,2.6,0,3.5l2,2c0.5,0.5,1.1,0.7,1.8,0.7s1.3-0.2,1.8-0.7c1-1,1-2.6,0-3.5
		L448.1,343.7z"/>
	<path class="st1" d="M455.5,362.7c-1.4,0-2.5,1.1-2.5,2.5v7.8c0,1.4,1.1,2.5,2.5,2.5s2.5-1.1,2.5-2.5v-7.8
		C458,363.8,456.9,362.7,455.5,362.7z"/>
	<path class="st1" d="M445.6,362.2l-2,2c-1,1-1,2.6,0,3.5c0.5,0.5,1.1,0.7,1.8,0.7s1.3-0.2,1.8-0.7l2-2c1-1,1-2.6,0-3.5
		S446.6,361.3,445.6,362.2z"/>
	<path class="st1" d="M460.5,365.8l2.1,2c0.5,0.5,1.1,0.7,1.7,0.7c0.7,0,1.3-0.3,1.8-0.8c1-1,0.9-2.6-0.1-3.5l-2.1-2
		c-1-1-2.6-0.9-3.5,0.1C459.4,363.3,459.5,364.9,460.5,365.8z"/>
	<path class="st1" d="M90.9,146.7h7.7c1.4,0,2.5-1.1,2.5-2.5s-1.1-2.5-2.5-2.5h-7.7c-1.4,0-2.5,1.1-2.5,2.5S89.5,146.7,90.9,146.7z"
		/>
	<path class="st1" d="M116.4,146.7h9.9c1.4,0,2.5-1.1,2.5-2.5s-1.1-2.5-2.5-2.5h-9.9c-1.4,0-2.5,1.1-2.5,2.5S115,146.7,116.4,146.7z
		"/>
	<path class="st1" d="M108.4,137.4c1.4,0,2.5-1.1,2.5-2.5v-7.7c0-1.4-1.1-2.5-2.5-2.5s-2.5,1.1-2.5,2.5v7.7
		C105.9,136.3,107,137.4,108.4,137.4z"/>
	<path class="st1" d="M116.5,138.7c0.6,0,1.3-0.2,1.8-0.7l2-2c1-1,1-2.6,0-3.5c-1-1-2.6-1-3.5,0l-2,2c-1,1-1,2.6,0,3.5
		C115.2,138.5,115.9,138.7,116.5,138.7z"/>
	<path class="st1" d="M103.4,134.4l-2-2c-1-1-2.6-1-3.5,0c-1,1-1,2.6,0,3.5l2,2c0.5,0.5,1.1,0.7,1.8,0.7s1.3-0.2,1.8-0.7
		C104.3,137,104.3,135.4,103.4,134.4z"/>
	<path class="st1" d="M108.8,164.2c1.4,0,2.5-1.1,2.5-2.5v-7.8c0-1.4-1.1-2.5-2.5-2.5s-2.5,1.1-2.5,2.5v7.8
		C106.3,163.1,107.4,164.2,108.8,164.2z"/>
	<path class="st1" d="M98.7,157.2c0.6,0,1.3-0.2,1.8-0.7l2-2c1-1,1-2.6,0-3.5c-1-1-2.6-1-3.5,0l-2,2c-1,1-1,2.6,0,3.5
		C97.4,157,98.1,157.2,98.7,157.2z"/>
	<path class="st1" d="M113.8,154.5l2,2c0.5,0.5,1.1,0.7,1.8,0.7s1.3-0.2,1.8-0.7c1-1,1-2.6,0-3.5l-2-2c-1-1-2.6-1-3.5,0
		C112.9,151.9,112.9,153.5,113.8,154.5z"/>
	<path class="st1" d="M28.5,245.7h7.8c1.4,0,2.5-1.1,2.5-2.5s-1.1-2.5-2.5-2.5h-7.8c-1.4,0-2.5,1.1-2.5,2.5S27.1,245.7,28.5,245.7z"
		/>
	<path class="st1" d="M66.4,243.2c0-1.4-1.1-2.5-2.5-2.5H54c-1.4,0-2.5,1.1-2.5,2.5s1.1,2.5,2.5,2.5h9.9
		C65.3,245.7,66.4,244.6,66.4,243.2z"/>
	<path class="st1" d="M43.5,226.2v7.7c0,1.4,1.1,2.5,2.5,2.5s2.5-1.1,2.5-2.5v-7.7c0-1.4-1.1-2.5-2.5-2.5S43.5,224.8,43.5,226.2z"/>
	<path class="st1" d="M54.1,237.7c0.6,0,1.3-0.2,1.8-0.7l2-2c1-1,1-2.6,0-3.5c-1-1-2.6-1-3.5,0l-2,2c-1,1-1,2.6,0,3.5
		C52.8,237.5,53.5,237.7,54.1,237.7z"/>
	<path class="st1" d="M41,233.4l-2.1-2c-1-1-2.6-0.9-3.5,0.1s-0.9,2.6,0.1,3.5l2.1,2c0.5,0.5,1.1,0.7,1.7,0.7c0.7,0,1.3-0.3,1.8-0.8
		C42.1,235.9,42,234.3,41,233.4z"/>
	<path class="st1" d="M36.3,256.2c0.6,0,1.3-0.2,1.8-0.7l2-2c1-1,1-2.6,0-3.5c-1-1-2.6-1-3.5,0l-2,2c-1,1-1,2.6,0,3.5
		C35,256,35.7,256.2,36.3,256.2z"/>
	<path class="st1" d="M51.4,249.9c-1,1-1,2.6,0,3.5l2,2c0.5,0.5,1.1,0.7,1.8,0.7s1.3-0.2,1.8-0.7c1-1,1-2.6,0-3.5l-2-2
		C54,249,52.4,249,51.4,249.9z"/>
	<path class="st1" d="M380.6,388.6c-1.4,0-2.5,1.1-2.5,2.5c0,5.6-4.2,10.3-9.7,11c5-4.1,8.2-10.4,8.2-17.4
		c0-12.5-10.1-22.6-22.6-22.6c-1.4,0-2.5,1.1-2.5,2.5s1.1,2.5,2.5,2.5c9.7,0,17.6,7.9,17.6,17.6c0,2.8-0.7,5.5-1.9,7.9
		c0-0.5,0.1-1,0.1-1.5c0-8.9-7.2-16.1-16.1-16.1c-1.4,0-2.5,1.1-2.5,2.5s1.1,2.5,2.5,2.5c6.1,0,11.1,5,11.1,11.1
		c0,6.1-5,11.1-11.1,11.1h-11.8c-0.2,0-0.4,0-0.7,0.1h-4.7c-0.6,0-1.1,0.2-1.5,0.5h-71.1c-2.9,0-5.2-2.3-5.2-5.2
		c0-2.7,2-4.9,4.6-5.2c3.9,1.9,11.8,3.2,19.3-3.6H295c1,0,1.9-0.6,2.3-1.5l4.9-11.3c0.2-0.6,0.3-1.2,0.1-1.7
		c-0.1-1.3-1.2-2.3-2.5-2.3h-20.1c-0.6-0.9-1.6-2.1-3.1-3.2l28-36c0.8-1,0.7-2.4-0.2-3.3c-0.9-0.9-2.4-0.9-3.3-0.1l-41.6,35h-4.8
		c-1.2,0-2.4,0.1-3.6,0.2c0-3.1,1.9-5.7,4.7-6.7v3.5c0,1.4,1.1,2.5,2.5,2.5s2.5-1.1,2.5-2.5v-6.4c0-1.4-1.1-2.5-2.5-2.5
		c-6.7,0-12.1,5.4-12.2,12c0,0,0,0,0,0h-28.5c-1.4,0-2.5,1.1-2.5,2.5s1.1,2.5,2.5,2.5h16.8c-0.9,0.5-1.9,1-2.8,1.6
		c-0.2,0-0.4-0.1-0.6-0.1h-11.3c-1.4,0-2.5,1.1-2.5,2.5s1.1,2.5,2.5,2.5h5.4c-0.6,0.5-1.2,1.1-1.8,1.7h-43.3c-1.4,0-2.5,1.1-2.5,2.5
		s1.1,2.5,2.5,2.5H219c-0.9,1.2-1.7,2.5-2.5,3.8H205c-1.4,0-2.5,1.1-2.5,2.5s1.1,2.5,2.5,2.5h9c-0.2,0.5-0.4,1-0.6,1.5H208
		c-1.4,0-2.5,1.1-2.5,2.5s1.1,2.5,2.5,2.5h3.9c-0.2,0.7-0.3,1.3-0.4,2H201c-1.4,0-2.5,1.1-2.5,2.5s1.1,2.5,2.5,2.5h9.8
		c0,0.3-0.1,0.7-0.1,1h-5.1c-1.4,0-2.5,1.1-2.5,2.5s1.1,2.5,2.5,2.5h5.1c0.8,15,9.2,27.9,21.3,35.2v62.5c0,1.4,1.1,2.5,2.5,2.5h7.7
		c1.3,0,2.3-1,2.5-2.2l1.1-10c0.1-0.2,0.1-0.4,0.1-0.6c0,0,0-0.1,0-0.1l3.5-31.3v43.1c0,1.4,1.1,2.5,2.5,2.5h7.8
		c1.3,0,2.3-1,2.5-2.2l0.9-8.1c0.3-0.4,0.5-0.9,0.5-1.5c0-0.4-0.1-0.7-0.2-1l5.3-47.6c3.2-1.7,13.1-6.4,24.5-7
		c2.3,16.9,14.5,30.7,31,34.9l5.1,29.5c0.2,1.2,1.2,2.1,2.5,2.1h6.6c1.3,0,2.5-1.1,2.5-2.4l1.2-33.5c2,0.9,4.1,1.6,6.3,2.2l5.1,34.4
		c0.2,1.2,1.2,2.1,2.5,2.1h6.6c1.4,0,2.5-1.1,2.5-2.4l1.3-64.4v-17.4c0-9.5-4.9-17.9-12.3-22.8h0.1c0.7,0,1.4,0,2.1-0.1H367
		c8.9,0,16.1-7.2,16.1-16.1C383.1,389.7,382,388.6,380.6,388.6z M272.2,366.4c-1.6-0.6-3.4-1.1-5.6-1.5l19.5-16.4L272.2,366.4z
		 M246.1,451.6l-4.9,44.1H237v-47C239.9,450,242.9,450.9,246.1,451.6z M237,506.1v-5.4h3.6l-0.6,5.4H237z M254.4,507.4v-4.3h3.5
		l-0.5,4.3H254.4z M333.8,506.5l-0.6-3.6h2.8l-0.1,3.6H333.8z M336.2,497.9h-3.9l-3.5-20.2c-0.2-1-1-1.8-1.9-2
		c-0.3-0.2-0.5-0.3-0.9-0.4c-14.6-3.5-25.6-15.5-27.8-30.2c7.7,0.5,15.7,3.2,22.6,10.1c0.1,0.1,0.1,0.1,0.2,0.2
		c3.5,7.3,9.1,13.5,16.1,17.7L336.2,497.9z M358,509.3l-0.8-5.2h2.9l-0.1,5.2H358z M361.2,430.1l0,17.3l-1,51.7h-3.7l-3.5-23.6
		c-0.2-1-0.9-1.8-1.9-2.1c-0.3-0.2-0.6-0.3-0.9-0.4c-15.3-3.6-26.5-16.6-28.1-32.2c-0.1-1.4-1.4-2.4-2.7-2.2
		c-1.4,0.1-2.4,1.4-2.2,2.7c0.2,1.7,0.4,3.4,0.8,5c-22.5-14.8-50.5,0.5-52.8,1.8c0,0,0,0-0.1,0c0,0-0.1,0-0.1,0c0,0,0,0-0.1,0
		c-0.1,0.1-0.2,0.1-0.3,0.2c0,0-0.1,0.1-0.1,0.1c-0.1,0.1-0.1,0.1-0.2,0.2c0,0.1-0.1,0.1-0.1,0.2c0,0.1-0.1,0.2-0.1,0.2
		c0,0.1-0.1,0.1-0.1,0.2c0,0.1-0.1,0.1-0.1,0.2c0,0.1,0,0.2-0.1,0.3c0,0.1,0,0.1,0,0.1l-5.3,48h-4.1v-45.7c0.1,0,0.1,0,0.2,0
		c1.4,0,2.5-1.1,2.5-2.5s-1.1-2.5-2.5-2.5c-21.5,0-39-17.5-39-39s17.5-39,39-39h5.7c13.1,0,15.5,5.7,15.5,5.9c0.3,1,1.3,1.7,2.4,1.7
		h18.1l-2.9,6.8h-11.8c-0.7,0-1.3,0.3-1.8,0.7c-7.3,7.3-14.4,3.4-14.6,3.2c-0.4-0.2-0.8-0.4-1.3-0.4c-5.6,0-10.2,4.6-10.2,10.2
		c0,5.7,4.5,10.2,10.2,10.2h75C351.2,407.8,361.2,417.8,361.2,430.1z"/>
	<path class="st1" d="M422.1,274.2l-4.4-4.4l39.7-39.7c0.4,0.2,0.8,0.4,1.3,0.4c0.6,0,1.1-0.2,1.6-0.6l17.7-14.5
		c1-0.8,1.2-2.2,0.5-3.3l-2.1-3.2c1.3-2.6,0.9-6-1.3-8.1c-2.2-2.1-5.5-2.5-8-1.2l-3.5-2.3c-1.1-0.7-2.5-0.5-3.3,0.5l-14.5,17.7
		c-0.8,1-0.7,2.4,0.2,3.4l0.1,0.1l-39.6,39.6l-3-3c-0.7-0.7-1.6-0.9-2.5-0.6c-0.2,0-0.4,0.1-0.6,0.1l-74.9,28.2l-0.3,0.1
		c-0.3,0.1-0.5,0.2-0.7,0.3c-0.2,0-0.4,0.1-0.6,0.2c-4.3,2.3-7,6.8-7,11.8c0,7.4,6,13.4,13.4,13.4c0.1,0,0.3,0,0.4,0l3.7-0.6
		c0.1,0,0.1,0,0.2,0l25.6-6.5c0.4,0,0.8-0.1,1.1-0.2c0.1-0.1,0.2-0.1,0.3-0.1c0,0,0.1,0,0.1,0l1-0.3c0,0,0.1,0,0.1,0
		c2.2-0.5,4.6,0.2,6.3,1.9c0.1,0.1,0.3,0.2,0.4,0.3c1.4,2.3,1.3,5.3-0.3,7.6c-0.2,0.3-0.4,0.7-0.4,1.1l-10.9,22l-0.4,0.9
		c-0.1,0.2-0.3,0.3-0.4,0.5c-0.6,1.3-1.1,2.6-1.3,3.9c-0.7,3.5,0.1,7.1,2.2,10c2,2.9,5.1,4.9,8.7,5.5c0.8,0.1,1.6,0.2,2.3,0.2
		c4.1,0,8-1.9,10.6-5.1c0.1-0.1,0.2-0.3,0.3-0.4l0,0c0.1-0.1,0.2-0.2,0.3-0.4l0.2-0.3c0,0,0-0.1,0.1-0.1l42.1-70.7
		c0.3-0.5,0.4-1.1,0.3-1.6C422.9,275.6,422.6,274.8,422.1,274.2z M417.4,276.7l-35.5,59.7l1.9-32.8c0.3,0.2,0.7,0.2,1.1,0.2
		c0.6,0,1.3-0.2,1.8-0.7c1-1,1-2.6,0-3.5l-1.3-1.3l24.5-24.5l0.2,0.2c0.5,0.5,1.1,0.7,1.8,0.7s1.3-0.3,1.8-0.7l0.6-0.6L417.4,276.7z
		 M414.5,257.4l2.3,2.3l-3.8,3.8l-2.2-2.3L414.5,257.4z M421.8,250.1l2.3,2.2l-3.8,3.8l-2.3-2.3L421.8,250.1z M429.1,242.8l2.2,2.3
		l-3.7,3.7l-2.3-2.2L429.1,242.8z M436.3,235.6l2.3,2.3l-3.8,3.8l-2.2-2.3L436.3,235.6z M443.6,228.3l2.3,2.3l-3.7,3.7l-2.3-2.3
		L443.6,228.3z M449.4,227.1l-2.3-2.3l2.2-2.2l2.3,2.3L449.4,227.1z M401.5,264.8c0.1,0.5,0.3,1,0.7,1.4l4,4l-21.9,21.9l0.8-14.8
		L401.5,264.8z M462.6,202.6l3,2c1,0.7,2.3,0.5,3.2-0.3c0.7-0.7,2-0.7,2.8,0c0.7,0.7,0.7,2,0,2.8c-0.8,0.8-0.9,2.1-0.3,3.1l1.8,2.7
		l-14.2,11.6l-7.8-7.8L462.6,202.6z M367.5,349.9c-4.6-0.9-7.6-5.2-6.8-9.7c0.1-0.7,0.4-1.5,0.8-2.3c0.1-0.1,0.2-0.3,0.3-0.5
		l12.2-24.7l0.5-0.8c0.2-0.3,0.3-0.6,0.3-1c1.3-3.7,0.9-7.7-1.4-11c-0.3-0.4-0.6-0.6-1-0.8c-3.4-3.2-8.2-4.1-12.4-2.5l-26.4,6.8
		l-3.4,0.5c-4.5-0.1-8.2-3.8-8.2-8.4c0-3.1,1.7-6,4.4-7.4c0,0,0.1-0.1,0.1-0.1c0,0,0,0,0,0l0.4-0.1c0.1,0,0.2-0.1,0.3-0.1l70.8-26.7
		L381.3,274c-0.6,0.4-0.9,1.1-1,1.8l-0.9,16.4l-5.4-5.4c-1-1-2.6-1-3.5,0c-1,1-1,2.6,0,3.5l8.6,8.6l-2.7,46.6l-0.3,0.4l-0.1,0.1
		c-0.2,0.2-0.4,0.5-0.5,0.7c0,0,0,0,0,0C373.6,349.3,370.5,350.5,367.5,349.9z"/>
	<circle class="st1" cx="389.8" cy="307.1" r="3.6"/>
	<circle class="st1" cx="397.9" cy="299" r="3.6"/>
	<path class="st1" d="M328.2,229.2c0-1.4-1.1-2.5-2.5-2.5h-25.9c-1.4,0-2.5,1.1-2.5,2.5s1.1,2.5,2.5,2.5h25.9
		C327.1,231.7,328.2,230.6,328.2,229.2z"/>
	<path class="st1" d="M24.3,59.3c1.4,0,2.5-1.1,2.5-2.5s-1.1-2.5-2.5-2.5h-16c-1.4,0-2.5,1.1-2.5,2.5s1.1,2.5,2.5,2.5H24.3z"/>
	<path class="st1" d="M196.1,451c0-1.4-1.1-2.5-2.5-2.5h-65.1c-1.4,0-2.5,1.1-2.5,2.5s1.1,2.5,2.5,2.5h65.1
		C195,453.5,196.1,452.4,196.1,451z"/>
	<path class="st1" d="M125.4,318.3c-1.4,0-2.5,1.1-2.5,2.5s1.1,2.5,2.5,2.5h25.9c1.4,0,2.5-1.1,2.5-2.5s-1.1-2.5-2.5-2.5H125.4z"/>
	<path class="st1" d="M483.7,428.6c0-1.4-1.1-2.5-2.5-2.5h-25.9c-1.4,0-2.5,1.1-2.5,2.5s1.1,2.5,2.5,2.5h25.9
		C482.6,431.1,483.7,430,483.7,428.6z"/>
	<path class="st1" d="M206.5,482.8h-25.9c-1.4,0-2.5,1.1-2.5,2.5s1.1,2.5,2.5,2.5h25.9c1.4,0,2.5-1.1,2.5-2.5
		S207.9,482.8,206.5,482.8z"/>
	<path class="st1" d="M253.3,70.9h26c1.4,0,2.5-1.1,2.5-2.5s-1.1-2.5-2.5-2.5h-26c-1.4,0-2.5,1.1-2.5,2.5S251.9,70.9,253.3,70.9z"/>
	<path class="st1" d="M142.8,397.9c0-1.4-1.1-2.5-2.5-2.5h-15.1c-1.4,0-2.5,1.1-2.5,2.5s1.1,2.5,2.5,2.5h15.1
		C141.7,400.4,142.8,399.3,142.8,397.9z"/>
	<path class="st1" d="M511.8,186c-1-1-2.6-1-3.5,0c-0.1,0.1-0.1,0.1-0.1,0.1c-1.6,0.3-7.1-6.4-11.5-15.1c-0.5-1-1.7-1.6-2.8-1.3
		c-1.1,0.3-1.9,1.3-1.9,2.4v22.5c-0.6-0.2-1.2-0.3-1.9-0.3c-3.8,0-6.9,3.1-6.9,6.9s3.1,6.9,6.9,6.9s6.9-3.1,6.9-6.9v-19.7
		c5.3,8,9.1,9.2,10.3,9.4c1.7,0.3,3.3-0.3,4.5-1.5C512.7,188.6,512.7,187,511.8,186z M490,203.2c-1,0-1.9-0.9-1.9-1.9
		s0.9-1.9,1.9-1.9s1.9,0.9,1.9,1.9S491,203.2,490,203.2z"/>
	<path class="st1" d="M399.4,219.6c-0.1,0.1-0.1,0.1-0.1,0.1c-1.7,0.3-7.1-6.4-11.5-15.1c-0.5-1-1.7-1.6-2.8-1.3
		c-1.1,0.3-1.9,1.3-1.9,2.4v22.5c-0.6-0.2-1.2-0.3-1.9-0.3c-3.8,0-6.9,3.1-6.9,6.9s3.1,6.9,6.9,6.9s6.9-3.1,6.9-6.9v-19.7
		c5.3,8,9.1,9.2,10.3,9.4c1.7,0.3,3.3-0.3,4.5-1.5c1-1,1-2.6,0-3.5C402,218.7,400.4,218.7,399.4,219.6z M381.2,236.8
		c-1,0-1.9-0.9-1.9-1.9s0.9-1.9,1.9-1.9c1,0,1.9,0.9,1.9,1.9S382.2,236.8,381.2,236.8z"/>
	<path class="st1" d="M483.4,305.9v-19.7c5.3,8,9.1,9.2,10.3,9.5c1.7,0.3,3.3-0.3,4.5-1.5c1-1,1-2.6,0-3.5s-2.6-1-3.5,0
		c-0.1,0.1-0.1,0.1-0.1,0.1c-1.7,0.3-7.1-6.4-11.5-15.1c-0.5-1-1.7-1.6-2.8-1.3c-1.1,0.3-1.9,1.3-1.9,2.4v22.5
		c-0.6-0.2-1.2-0.3-1.9-0.3c-3.8,0-6.9,3.1-6.9,6.9s3.1,6.9,6.9,6.9S483.4,309.7,483.4,305.9z M474.6,305.9c0-1,0.9-1.9,1.9-1.9
		s1.9,0.9,1.9,1.9c0,1-0.9,1.9-1.9,1.9S474.6,306.9,474.6,305.9z"/>
	<path class="st1" d="M336.5,85.4c-3.8,0-6.9,3.1-6.9,6.9s3.1,6.9,6.9,6.9s6.9-3.1,6.9-6.9S340.3,85.4,336.5,85.4z M336.5,94.2
		c-1,0-1.9-0.9-1.9-1.9s0.9-1.9,1.9-1.9s1.9,0.9,1.9,1.9S337.5,94.2,336.5,94.2z"/>
	<path class="st1" d="M494.4,374.6c-3.8,0-6.9,3.1-6.9,6.9s3.1,6.9,6.9,6.9s6.9-3.1,6.9-6.9S498.2,374.6,494.4,374.6z M494.4,383.4
		c-1,0-1.9-0.9-1.9-1.9s0.9-1.9,1.9-1.9c1,0,1.9,0.9,1.9,1.9S495.4,383.4,494.4,383.4z"/>
	<path class="st1" d="M433.9,290.5c0,3.8,3.1,6.9,6.9,6.9s6.9-3.1,6.9-6.9s-3.1-6.9-6.9-6.9S433.9,286.7,433.9,290.5z M442.7,290.5
		c0,1-0.9,1.9-1.9,1.9c-1,0-1.9-0.9-1.9-1.9s0.9-1.9,1.9-1.9C441.8,288.6,442.7,289.5,442.7,290.5z"/>
	<path class="st1" d="M81.7,288c-3.8,0-6.9,3.1-6.9,6.9s3.1,6.9,6.9,6.9s6.9-3.1,6.9-6.9S85.5,288,81.7,288z M81.7,296.8
		c-1,0-1.9-0.9-1.9-1.9c0-1,0.9-1.9,1.9-1.9s1.9,0.9,1.9,1.9C83.6,295.9,82.7,296.8,81.7,296.8z"/>
	<path class="st1" d="M125.4,203.8c3.8,0,6.9-3.1,6.9-6.9s-3.1-6.9-6.9-6.9s-6.9,3.1-6.9,6.9S121.6,203.8,125.4,203.8z M125.4,195
		c1,0,1.9,0.9,1.9,1.9s-0.9,1.9-1.9,1.9s-1.9-0.9-1.9-1.9S124.4,195,125.4,195z"/>
	<path class="st1" d="M217.3,323.6c0,3.8,3.1,6.9,6.9,6.9s6.9-3.1,6.9-6.9s-3.1-6.9-6.9-6.9S217.3,319.8,217.3,323.6z M226.1,323.6
		c0,1-0.9,1.9-1.9,1.9s-1.9-0.9-1.9-1.9c0-1,0.9-1.9,1.9-1.9S226.1,322.6,226.1,323.6z"/>
	<path class="st1" d="M66.5,491.3c-3.8,0-6.9,3.1-6.9,6.9s3.1,6.9,6.9,6.9s6.9-3.1,6.9-6.9S70.3,491.3,66.5,491.3z M66.5,500.1
		c-1,0-1.9-0.9-1.9-1.9c0-1,0.9-1.9,1.9-1.9s1.9,0.9,1.9,1.9C68.4,499.2,67.5,500.1,66.5,500.1z"/>
	<path class="st1" d="M31.2,201.3c0-3.8-3.1-6.9-6.9-6.9s-6.9,3.1-6.9,6.9s3.1,6.9,6.9,6.9S31.2,205.1,31.2,201.3z M24.3,203.2
		c-1,0-1.9-0.9-1.9-1.9s0.9-1.9,1.9-1.9s1.9,0.9,1.9,1.9S25.3,203.2,24.3,203.2z"/>
	<path class="st1" d="M490,35c3.8,0,6.9-3.1,6.9-6.9s-3.1-6.9-6.9-6.9s-6.9,3.1-6.9,6.9S486.2,35,490,35z M490,26.2
		c1,0,1.9,0.9,1.9,1.9S491,30,490,30s-1.9-0.9-1.9-1.9S489,26.2,490,26.2z"/>
	<path class="st1" d="M111.1,80.7c0-3.8-3.1-6.9-6.9-6.9s-6.9,3.1-6.9,6.9s3.1,6.9,6.9,6.9S111.1,84.5,111.1,80.7z M102.3,80.7
		c0-1,0.9-1.9,1.9-1.9s1.9,0.9,1.9,1.9s-0.9,1.9-1.9,1.9S102.3,81.7,102.3,80.7z"/>
	<path class="st1" d="M146.9,468.6c-3.8,0-6.9,3.1-6.9,6.9s3.1,6.9,6.9,6.9s6.9-3.1,6.9-6.9S150.7,468.6,146.9,468.6z M146.9,477.4
		c-1,0-1.9-0.9-1.9-1.9s0.9-1.9,1.9-1.9s1.9,0.9,1.9,1.9S147.9,477.4,146.9,477.4z"/>
	<path class="st1" d="M222.3,31.1c3.8,0,6.9-3.1,6.9-6.9s-3.1-6.9-6.9-6.9s-6.9,3.1-6.9,6.9S218.5,31.1,222.3,31.1z M222.3,22.3
		c1,0,1.9,0.9,1.9,1.9s-0.9,1.9-1.9,1.9s-1.9-0.9-1.9-1.9S221.3,22.3,222.3,22.3z"/>
	<path class="st1" d="M237.8,273.9c0,1.4,1.1,2.5,2.5,2.5s2.5-1.1,2.5-2.5v-28.5c0-1.4-1.1-2.5-2.5-2.5s-2.5,1.1-2.5,2.5v7.1H130.2
		c0,0,0,0,0,0c-0.2,0-0.4,0-0.6,0.1c-0.1,0-0.1,0-0.2,0c-0.2,0.1-0.3,0.1-0.5,0.2c0,0-0.1,0-0.1,0l-18.1,11c-1,0.6-1.4,1.7-1.1,2.8
		c0.3,1.1,1.3,1.8,2.4,1.8h125.7V273.9z M121,263.5l8.8-5.3l3.7,3.7c0.5,0.5,1.1,0.7,1.8,0.7s1.3-0.2,1.8-0.7c1-1,1-2.6,0-3.5
		l-0.8-0.8h101.6v6H121z"/>
	<path class="st1" d="M314,259.7c0-3.5-2.8-6.3-6.3-6.3c-1.5,0-2.8,0.5-3.9,1.4v-1.5c0-1.4-1.1-2.5-2.5-2.5H249v-5.4
		c0-1.4-1.1-2.5-2.5-2.5s-2.5,1.1-2.5,2.5v7.9V266v7.9c0,1.4,1.1,2.5,2.5,2.5s2.5-1.1,2.5-2.5v-5.4h52.3c0,0,0,0,0,0c0,0,0,0,0.1,0
		c0.6,0,1.3-0.2,1.8-0.7c0.7-0.7,0.9-1.6,0.6-2.4v-0.7c1.1,0.9,2.4,1.4,3.9,1.4C311.2,266,314,263.2,314,259.7z M298.8,259.9
		l-4.1-4.1h4.1V259.9z M293.2,263.5l-7.7-7.7h2.1l7.7,7.7H293.2z M283.4,263.5l-7.7-7.7h2.7l7.7,7.7H283.4z M272.1,263.5l-7.7-7.7
		h4.2l7.7,7.7H272.1z M261.1,263.5l-7.7-7.7h3.9l7.7,7.7H261.1z M249,258.4l5.1,5.1H249V258.4z M306.4,259.7c0-0.7,0.6-1.3,1.3-1.3
		s1.3,0.6,1.3,1.3s-0.6,1.3-1.3,1.3S306.4,260.4,306.4,259.7z"/>
	<path class="st1" d="M158.5,145.5c0,26.5,21.6,48.1,48.1,48.1s48.1-21.6,48.1-48.1s-21.6-48.1-48.1-48.1S158.5,119,158.5,145.5z
		 M206.6,102.4c10.1,0,19.3,3.5,26.7,9.3h-11c-1.4,0-2.5,1.1-2.5,2.5s1.1,2.5,2.5,2.5h15.1c0.4,0,0.7-0.1,1-0.2
		c7,7.7,11.3,17.9,11.3,29c0,9.2-2.9,17.7-7.8,24.8c-0.4-0.3-1-0.6-1.6-0.6h-15c-1.4,0-2.5,1.1-2.5,2.5s1.1,2.5,2.5,2.5h13
		c-7.9,8.5-19.2,13.9-31.7,13.9c-18.1,0-33.6-11.2-40-27h13.3c1.4,0,2.5-1.1,2.5-2.5s-1.1-2.5-2.5-2.5H165c-0.7-2.8-1.2-5.6-1.4-8.6
		h43c1.4,0,2.5-1.1,2.5-2.5s-1.1-2.5-2.5-2.5h-43C164.9,120.4,183.7,102.4,206.6,102.4z"/>
	<path class="st1" d="M204.7,172.2c0,1.4,1.1,2.5,2.5,2.5h8.6c1.4,0,2.5-1.1,2.5-2.5s-1.1-2.5-2.5-2.5h-8.6
		C205.8,169.7,204.7,170.8,204.7,172.2z"/>
	<path class="st1" d="M12.8,126.5v29.8c0,15.2,12.3,27.5,27.5,27.5h3.9c15.2,0,27.5-12.3,27.5-27.5v-29.8
		c0-15.2-12.3-27.5-27.5-27.5h-0.4V22.9c0-5.7,4.4-10.1,10.1-10.1c5.4,0,9.8,4.2,10.1,9.5c0,0.2-0.1,0.4-0.1,0.6
		C63.9,31.2,70.7,38,79,38s15.1-6.8,15.1-15.1c0-5.6,4.5-10.1,10.1-10.1c5.4,0,9.8,4.2,10.1,9.5c0,0.2-0.1,0.4-0.1,0.6
		c0,8.3,6.8,15.1,15.1,15.1s15.1-6.8,15.1-15.1c0-5.6,4.5-10.1,10.1-10.1s10.1,4.5,10.1,10.1v40.6H161c-1.4,0-2.5,1.1-2.5,2.5v14.7
		c0,1.4,1.1,2.5,2.5,2.5h11.4c1.4,0,2.5-1.1,2.5-2.5V66c0-1.4-1.1-2.5-2.5-2.5h-2.8V22.9c0-8.3-6.8-15.1-15.1-15.1
		s-15.1,6.8-15.1,15.1c0,5.6-4.5,10.1-10.1,10.1c-5.4,0-9.8-4.2-10.1-9.5c0-0.2,0.1-0.4,0.1-0.6c0-8.3-6.8-15.1-15.1-15.1
		s-15.1,6.8-15.1,15.1C89.1,28.5,84.6,33,79,33c-5.5,0-9.8-4.1-10.1-9.5c0-0.2,0.1-0.4,0.1-0.6c0-8.3-6.8-15.1-15.1-15.1
		s-15.1,6.8-15.1,15.1V99C24.3,99.8,12.8,111.8,12.8,126.5z M169.9,78.2h-6.4v-9.7h6.4V78.2z M66.7,126.5v29.8
		c0,12.4-10.1,22.5-22.5,22.5h-3.9c-12.4,0-22.5-10.1-22.5-22.5v-29.8c0-12.4,10.1-22.5,22.5-22.5h3.9
		C56.6,104,66.7,114.1,66.7,126.5z"/>
	<path class="st1" d="M35.8,123.2c0,3.6,2.9,6.5,6.5,6.5s6.5-2.9,6.5-6.5s-2.9-6.5-6.5-6.5S35.8,119.6,35.8,123.2z M42.3,121.7
		c0.8,0,1.5,0.7,1.5,1.5s-0.7,1.5-1.5,1.5s-1.5-0.7-1.5-1.5S41.5,121.7,42.3,121.7z"/>
	<path class="st1" d="M424.4,33.4c1.8,0,3.2,1.4,3.2,3.2c0,1.7-1.5,3.2-3.2,3.2c-1.4,0-2.5,1.1-2.5,2.5s1.1,2.5,2.5,2.5
		c4.4,0,8.2-3.8,8.2-8.2c0-4.5-3.7-8.2-8.2-8.2c-1.8,0-3.2-1.4-3.2-3.2c0-1.7,1.5-3.2,3.2-3.2c0.3,0,0.5-0.1,0.8-0.1
		c4.1-0.4,7.4-4,7.4-8.2c0-4.5-3.7-8.2-8.2-8.2c-1.4,0-2.5,1.1-2.5,2.5s1.1,2.5,2.5,2.5c1.8,0,3.2,1.4,3.2,3.2
		c0,1.7-1.5,3.2-3.2,3.2c-0.3,0-0.5,0.1-0.8,0.1c-4.1,0.4-7.4,4-7.4,8.2C416.2,29.7,419.9,33.4,424.4,33.4z"/>
	<path class="st1" d="M406.7,33.4c1.4,0,2.5-1.1,2.5-2.5s-1.1-2.5-2.5-2.5c-1.8,0-3.2-1.4-3.2-3.2c0-1.7,1.5-3.2,3.2-3.2
		c0.3,0,0.5-0.1,0.8-0.1c4.1-0.4,7.4-4,7.4-8.2c0-4.5-3.7-8.2-8.2-8.2c-1.4,0-2.5,1.1-2.5,2.5s1.1,2.5,2.5,2.5
		c1.8,0,3.2,1.4,3.2,3.2c0,1.7-1.5,3.2-3.2,3.2c-0.3,0-0.5,0.1-0.8,0.1c-4.1,0.4-7.4,4-7.4,8.2C398.5,29.7,402.2,33.4,406.7,33.4z"
		/>
	<path class="st1" d="M292.5,169c-1.4,0-2.5,1.1-2.5,2.5c0,9.8,7.9,17.7,17.7,17.7s17.7-7.9,17.7-17.7c0-1.4-1.1-2.5-2.5-2.5H292.5z
		"/>
	<circle class="st1" cx="297" cy="155.9" r="4.6"/>
	<circle class="st1" cx="318.4" cy="155.9" r="4.6"/>
	<path class="st1" d="M372.8,77h4.5l6.8,96.4c0.1,1.3,1.2,2.3,2.5,2.3h56.5c1.3,0,2.4-1,2.5-2.3l6.8-96.4h4.4c1.4,0,2.5-1.1,2.5-2.5
		V64.1c0-1.4-1.1-2.5-2.5-2.5h-6.9v-11c0-1.4-1.1-2.5-2.5-2.5h-65.1c-1.4,0-2.5,1.1-2.5,2.5v11h-7c-1.4,0-2.5,1.1-2.5,2.5v10.4
		C370.3,75.9,371.4,77,372.8,77z M440.8,170.7h-51.8L382.3,77h65.1L440.8,170.7z M384.8,53.1h60.1v8.5h-60.1V53.1z M375.3,66.6h7
		h65.1h6.9V72h-4.2h-70.5h-4.3V66.6z"/>
	<path class="st1" d="M414.9,144.9c10.4,0,18.8-8.4,18.8-18.8c0-10.4-8.4-18.8-18.8-18.8c-10.4,0-18.8,8.4-18.8,18.8
		C396.1,136.5,404.5,144.9,414.9,144.9z M414.9,112.3c7.6,0,13.8,6.2,13.8,13.8s-6.2,13.8-13.8,13.8s-13.8-6.2-13.8-13.8
		S407.3,112.3,414.9,112.3z"/>
	<path class="st1" d="M196,318c0.9-0.2,1.5-0.9,1.8-1.8l7-26c0.2-0.9,0-1.8-0.6-2.4c-0.6-0.6-1.6-0.9-2.4-0.6l-26,7
		c-0.9,0.2-1.5,0.9-1.8,1.8s0,1.8,0.6,2.4l19,19c0.5,0.5,1.1,0.7,1.8,0.7C195.6,318.1,195.8,318.1,196,318z M181.2,297.9l17.6-4.7
		l-4.7,17.6L181.2,297.9z"/>
	<path class="st1" d="M493.3,469.9l-13,3.4l-13,3.5c-0.9,0.2-1.5,0.9-1.8,1.8c-0.2,0.9,0,1.8,0.6,2.4l9.5,9.6l9.6,9.5
		c0.5,0.5,1.1,0.7,1.8,0.7c0.2,0,0.4,0,0.7-0.1c0.9-0.2,1.5-0.9,1.8-1.8l3.4-13l3.5-13c0.2-0.9,0-1.8-0.6-2.4
		C495,469.9,494.1,469.7,493.3,469.9z M488,484.7l-2.3,8.8l-6.5-6.4l-6.5-6.5l8.8-2.4l8.8-2.3L488,484.7z"/>
	<path class="st1" d="M475.9,110.6l9.6,9.5c0.5,0.5,1.1,0.7,1.8,0.7c0.2,0,0.4,0,0.7-0.1c0.9-0.2,1.5-0.9,1.8-1.8l3.4-13l3.5-13
		c0.2-0.9,0-1.8-0.6-2.4c-0.6-0.6-1.5-0.9-2.4-0.7l-13,3.4l-13,3.5c-0.9,0.2-1.5,0.9-1.8,1.8c-0.2,0.9,0,1.8,0.6,2.4L475.9,110.6z
		 M481.8,98.1l8.8-2.3l-2.4,8.9l-2.3,8.8l-6.5-6.4l-6.5-6.5L481.8,98.1z"/>
	<path class="st1" d="M107.2,445.1l-13.1,3.4l-13,3.5c-0.9,0.2-1.5,0.9-1.8,1.8s0,1.8,0.6,2.4L99,475.3c0.5,0.5,1.1,0.7,1.8,0.7
		c0.2,0,0.4,0,0.6-0.1c0.9-0.2,1.5-0.9,1.8-1.8l7-26c0.2-0.9,0-1.8-0.6-2.4C108.9,445.1,108,444.9,107.2,445.1z M99.5,468.7l-13-13
		l8.8-2.4l8.9-2.3L99.5,468.7z"/>
	<path class="st1" d="M278.5,99.5c-0.6,0.6-0.9,1.6-0.6,2.4l3.5,13l3.4,13c0.2,0.9,0.9,1.5,1.8,1.8c0.2,0.1,0.4,0.1,0.7,0.1
		c0.6,0,1.3-0.3,1.8-0.7l9.6-9.5l9.5-9.6c0.6-0.6,0.9-1.6,0.6-2.4s-0.9-1.5-1.8-1.8l-13-3.4l-13-3.5
		C280.1,98.7,279.2,98.9,278.5,99.5z M292.7,107.2l8.8,2.3L295,116l-6.5,6.5l-2.3-8.8l-2.4-8.8L292.7,107.2z"/>
	<circle class="st1" cx="45" cy="343.6" r="5.9"/>
	<path class="st1" d="M60,418.2h2c1.4,0,2.5-1.1,2.5-2.5s-1.1-2.5-2.5-2.5h-4.5h-6c1.7-2.1,3.2-4.8,4.5-7.7h6c1.4,0,2.5-1.1,2.5-2.5
		s-1.1-2.5-2.5-2.5h-4c0.7-2,1.3-4.1,1.9-6.2c0.2,0,0.3,0.1,0.5,0.1h21.3c0.9,0,1.7-0.5,2.2-1.3c0.4-0.8,0.4-1.7,0-2.5l-16.9-28
		c-0.4-0.7-1.2-1.1-2-1.2c1.4-28-3.2-46.7-3.5-47.5c0-0.1,0-0.1-0.1-0.2c0,0,0-0.1,0-0.1l-13.9-35.8v-30c0-0.6-0.2-1.1-0.6-1.6
		c0.8-0.6,1.3-1.5,1.3-2.5c0-1.8-1.4-3.2-3.2-3.2s-3.2,1.4-3.2,3.2c0,1,0.5,1.9,1.3,2.5c-0.3,0.4-0.6,1-0.6,1.6v30l-13.9,35.8
		c0,0,0,0.1,0,0.1c0,0.1,0,0.1-0.1,0.2c-0.2,0.8-4.3,17.4-3.6,42.8c0,0.1,0,0.2,0,0.4c0,0.2,0,0.4,0.1,0.5c0.1,1.7,0.1,3.4,0.2,5.2
		L8.3,390.6c-0.5,0.8-0.5,1.7,0,2.5c0.4,0.8,1.3,1.3,2.2,1.3h19.7c0.6,2.1,1.2,4.1,1.9,6.1h-4.1c-1.4,0-2.5,1.1-2.5,2.5
		s1.1,2.5,2.5,2.5H34c1.3,2.9,2.8,5.6,4.5,7.7h-6h-4.6c-1.4,0-2.5,1.1-2.5,2.5s1.1,2.5,2.5,2.5H30v13.9c0,1.4,1.1,2.5,2.5,2.5h1.1
		v25.5c0,1.4,1.1,2.5,2.5,2.5s2.5-1.1,2.5-2.5v-25.5h3.9v6.3c0,1.4,1.1,2.5,2.5,2.5s2.5-1.1,2.5-2.5v-6.3H52v11.5
		c0,1.4,1.1,2.5,2.5,2.5s2.5-1.1,2.5-2.5v-11.5h0.5c1.4,0,2.5-1.1,2.5-2.5V418.2z M77.3,389.4H61.1c2.5-10.7,3.4-20.4,3.4-20.6
		c0-0.2,0-0.3,0-0.5L77.3,389.4z M45,285.2l6.1,15.7H45c-1.4,0-2.5,1.1-2.5,2.5s1.1,2.5,2.5,2.5h8.1l2.4,6.1H34.6L45,285.2z
		 M14.8,389.4l10.9-18.1c0.4,3.6,1.4,10.6,3.1,18.1H14.8z M35.3,394.3c-2.7-9.4-4.3-19.8-4.8-25.9c-0.3-3.1-0.4-6-0.6-8.9h6.2
		c1.4,0,2.5-1.1,2.5-2.5s-1.1-2.5-2.5-2.5h-6.3c-0.3-18.9,2.1-32.7,3.1-37.5h24.2c1.2,5.9,4.6,25.4,2.4,51.4c-0.1,1.8-0.4,4-0.7,6.5
		c-0.2,0-0.3,0-0.5,0h-8.8c-1.4,0-2.5,1.1-2.5,2.5s1.1,2.5,2.5,2.5H58c-0.8,4.6-1.9,9.7-3.3,14.5c-0.7,2.3-1.3,4.3-2.1,6.2H37.3
		C36.6,398.6,35.9,396.5,35.3,394.3z M50.5,405.5c-1.8,3.5-3.6,5.9-5.5,7.1c-1.9-1.2-3.7-3.6-5.5-7.1H50.5z M55,418.2v3.2H45
		c-1.4,0-2.5,1.1-2.5,2.5s1.1,2.5,2.5,2.5h10v3.2H35v-11.4H55z"/>
	<path class="st1" d="M36.1,467.7c-1.4,0-2.5,1.1-2.5,2.5v3.9c0,1.4,1.1,2.5,2.5,2.5s2.5-1.1,2.5-2.5v-3.9
		C38.6,468.8,37.5,467.7,36.1,467.7z"/>
	<path class="st1" d="M54.5,453.7c-1.4,0-2.5,1.1-2.5,2.5v15.7c0,1.4,1.1,2.5,2.5,2.5s2.5-1.1,2.5-2.5v-15.7
		C57,454.8,55.9,453.7,54.5,453.7z"/>
	<path class="st1" d="M45,448.5c-1.4,0-2.5,1.1-2.5,2.5v3.9c0,1.4,1.1,2.5,2.5,2.5s2.5-1.1,2.5-2.5V451
		C47.5,449.6,46.4,448.5,45,448.5z"/>
	<path class="st1" d="M400.5,406.1c-1.4,0-2.5,1.1-2.5,2.5v48.8c0,1.4,1.1,2.5,2.5,2.5s2.5-1.1,2.5-2.5v-48.8
		C403,407.2,401.9,406.1,400.5,406.1z"/>
	<path class="st1" d="M400.5,472.9c-1.4,0-2.5,1.1-2.5,2.5v7c0,1.4,1.1,2.5,2.5,2.5s2.5-1.1,2.5-2.5v-7
		C403,474,401.9,472.9,400.5,472.9z"/>
	<path class="st1" d="M433.3,409c-1.4,0-2.5,1.1-2.5,2.5v20.9c0,1.4,1.1,2.5,2.5,2.5s2.5-1.1,2.5-2.5v-20.9
		C435.8,410.1,434.7,409,433.3,409z"/>
	<path class="st1" d="M433.3,448c-1.4,0-2.5,1.1-2.5,2.5v47.7c0,1.4,1.1,2.5,2.5,2.5s2.5-1.1,2.5-2.5v-47.7
		C435.8,449.1,434.7,448,433.3,448z"/>
	<path class="st1" d="M416.3,337.4c-1.4,0-2.5,1.1-2.5,2.5v83.2c0,1.4,1.1,2.5,2.5,2.5s2.5-1.1,2.5-2.5v-83.2
		C418.8,338.5,417.7,337.4,416.3,337.4z"/>
	<path class="st1" d="M416.3,438.7c-1.4,0-2.5,1.1-2.5,2.5v6.9c0,1.4,1.1,2.5,2.5,2.5s2.5-1.1,2.5-2.5v-6.9
		C418.8,439.8,417.7,438.7,416.3,438.7z"/>
</g>
</svg>
